<?xml version="1.0" standalone="no"?>
<!DOCTYPE svg PUBLIC "-//W3C//DTD SVG 20010904//EN"
 "http://www.w3.org/TR/2001/REC-SVG-20010904/DTD/svg10.dtd">
<svg version="1.0" xmlns="http://www.w3.org/2000/svg"
 width="756.000000pt" height="756.000000pt" viewBox="0 0 756.000000 756.000000"
 preserveAspectRatio="xMidYMid meet">
<metadata>
Created by potrace 1.11, written by Peter Selinger 2001-2013
</metadata>
<g transform="translate(0.000000,756.000000) scale(0.100000,-0.100000)"
fill="#000000" stroke="none">
<path d="M1858 7555 c-1 -2 -30 -6 -63 -9 -33 -3 -71 -8 -85 -11 -14 -3 -41
-8 -60 -11 -19 -3 -68 -15 -108 -26 -40 -10 -81 -21 -90 -23 -44 -9 -198 -71
-302 -122 -116 -57 -319 -188 -377 -243 -18 -16 -34 -30 -38 -30 -3 0 -48 -44
-101 -97 -164 -166 -289 -341 -386 -540 -28 -59 -53 -112 -54 -118 -2 -5 -19
-55 -39 -110 -19 -55 -37 -109 -39 -120 -3 -11 -12 -51 -21 -90 -8 -38 -17
-81 -19 -95 -2 -14 -7 -54 -12 -90 -11 -81 -12 -387 -1 -460 5 -30 9 -62 9
-70 1 -14 27 -140 48 -230 22 -93 96 -280 153 -390 43 -80 133 -226 154 -248
25 -26 36 -54 24 -61 -7 -5 5 -25 34 -57 24 -27 45 -54 45 -61 0 -6 4 -13 8
-15 4 -1 23 -30 41 -63 19 -33 43 -76 54 -95 11 -19 27 -46 35 -60 18 -33 42
-73 131 -227 41 -70 79 -138 85 -150 6 -13 14 -23 19 -23 4 0 7 -5 7 -11 0 -6
17 -39 37 -73 21 -33 38 -63 38 -66 0 -3 12 -23 25 -45 14 -23 30 -50 37 -60
7 -11 24 -42 39 -70 14 -27 35 -62 45 -77 11 -14 19 -31 19 -37 0 -6 5 -11 10
-11 6 0 10 -5 10 -10 0 -6 32 -65 71 -133 40 -67 81 -138 92 -157 60 -107 72
-127 86 -144 9 -10 16 -21 15 -25 -1 -3 4 -15 11 -26 38 -62 85 -147 85 -156
0 -5 5 -9 10 -9 6 0 10 -4 10 -9 0 -4 22 -46 50 -92 27 -46 54 -94 60 -107 5
-13 24 -43 40 -67 17 -24 30 -46 30 -50 0 -3 62 -112 138 -243 76 -130 149
-257 163 -282 13 -25 27 -46 32 -48 4 -2 7 -8 7 -12 0 -5 14 -33 31 -62 18
-29 41 -69 52 -88 10 -19 86 -150 168 -291 82 -141 149 -259 149 -263 0 -4 5
-12 11 -19 9 -11 297 -505 312 -538 4 -8 16 -27 26 -44 11 -16 32 -52 46 -80
15 -27 32 -56 38 -64 6 -7 16 -23 22 -34 15 -32 90 -85 136 -97 60 -16 151 -4
198 26 102 66 143 208 92 315 -20 42 -33 65 -129 230 -24 41 -55 94 -69 119
-14 25 -51 88 -82 140 -30 52 -56 97 -56 100 0 3 -8 16 -17 30 -23 36 -130
222 -216 375 -9 16 -31 52 -48 80 -16 27 -43 75 -60 105 -16 30 -32 57 -35 60
-3 3 -19 30 -36 60 -16 30 -72 127 -123 215 -51 88 -100 174 -110 190 -9 17
-30 53 -47 80 -16 28 -33 57 -37 65 -4 8 -18 33 -31 55 -14 22 -30 51 -37 65
-7 14 -38 68 -69 120 -31 52 -66 111 -77 130 -16 29 -89 155 -223 388 -11 17
-27 47 -37 65 -11 17 -69 118 -130 224 -62 105 -112 197 -112 202 0 6 -4 11
-10 11 -5 0 -10 5 -10 11 0 6 -8 23 -19 37 -10 15 -33 53 -50 85 -18 33 -39
70 -47 83 l-16 24 46 -14 c25 -8 46 -12 46 -9 0 3 7 0 15 -7 8 -6 19 -9 25 -5
6 4 16 2 23 -3 11 -9 61 -21 112 -28 11 -1 36 -5 55 -8 142 -24 501 -25 571
-2 8 3 33 7 55 10 67 8 236 54 336 90 106 38 286 123 341 161 21 14 40 25 43
25 2 0 35 23 73 50 38 27 72 50 77 50 4 0 603 -595 1330 -1322 957 -957 1336
-1330 1370 -1348 53 -27 133 -32 195 -11 34 11 128 87 128 104 0 4 7 20 14 35
24 47 20 150 -7 201 -15 29 -461 481 -1351 1372 l-1329 1327 35 44 c139 173
280 475 335 720 39 175 48 254 47 453 0 149 -12 320 -23 320 -1 0 -3 14 -5 30
-5 47 -31 155 -52 217 l-20 58 66 -37 c69 -38 205 -117 231 -134 8 -5 29 -16
45 -24 17 -9 44 -24 62 -35 63 -38 345 -202 391 -227 26 -14 115 -66 199 -114
83 -49 156 -89 161 -89 6 0 12 -4 14 -8 3 -8 50 -36 158 -95 30 -16 66 -37 80
-47 14 -9 32 -20 40 -24 8 -4 24 -12 35 -19 11 -7 56 -33 100 -58 75 -43 497
-286 575 -332 19 -11 55 -31 80 -45 25 -14 62 -36 82 -49 21 -12 40 -23 44
-23 3 0 26 -13 51 -30 24 -16 45 -30 47 -30 3 0 214 -120 246 -140 8 -5 95
-55 193 -111 97 -56 180 -105 183 -110 3 -5 10 -7 15 -4 5 4 9 1 9 -4 0 -6 5
-11 10 -11 6 0 36 -16 66 -35 30 -19 60 -35 67 -35 7 0 18 -5 24 -11 15 -15
118 -20 156 -7 57 20 106 59 143 115 34 52 36 58 32 121 -7 112 -56 184 -165
243 -26 14 -120 68 -208 119 -88 51 -185 106 -215 123 -30 16 -59 33 -65 38
-5 4 -55 33 -110 64 -119 68 -124 71 -290 167 -71 42 -147 85 -167 97 -21 12
-53 29 -70 40 -18 10 -49 27 -68 37 -19 11 -40 25 -48 32 -7 6 -20 12 -28 12
-8 0 -14 5 -14 10 0 6 -4 10 -10 10 -8 0 -138 72 -180 100 -8 6 -22 13 -30 17
-8 3 -39 21 -68 40 -29 18 -54 33 -57 33 -2 0 -42 22 -87 49 -46 27 -99 58
-118 68 -19 11 -80 46 -135 78 -55 32 -113 66 -130 75 -58 33 -360 208 -395
229 -19 11 -42 24 -50 28 -8 4 -43 24 -78 45 -34 21 -67 38 -72 38 -6 0 -10 5
-10 10 0 6 -5 10 -10 10 -6 0 -52 24 -103 54 -50 29 -117 67 -147 85 -30 17
-62 36 -70 41 -40 25 -124 70 -132 70 -4 0 -8 5 -8 10 0 6 -4 10 -8 10 -5 0
-76 39 -158 86 -82 48 -169 98 -194 112 -25 14 -97 55 -161 93 -63 37 -132 75
-152 85 -20 10 -37 21 -37 26 0 4 -4 8 -10 8 -5 0 -70 36 -146 80 -75 44 -140
80 -144 80 -4 0 -25 12 -46 28 -49 33 -61 40 -176 100 -78 40 -155 73 -273
118 -37 14 -229 64 -260 69 -23 3 -77 12 -120 21 -32 6 -421 15 -427 9z m307
-450 c258 -23 489 -103 703 -244 97 -64 121 -83 215 -171 88 -82 267 -306 267
-335 0 -3 11 -23 25 -44 l24 -39 -424 -424 c-233 -232 -429 -423 -435 -423 -5
0 -83 73 -173 162 -89 88 -180 171 -202 184 -54 30 -164 32 -215 4 -93 -52
-145 -141 -142 -240 4 -82 31 -121 212 -302 l169 -170 -419 -419 c-231 -230
-425 -421 -430 -422 -8 -3 -159 82 -195 109 -132 102 -280 246 -333 324 -15
22 -30 42 -33 45 -15 13 -86 133 -124 210 -65 130 -109 268 -139 435 -28 152
-21 385 15 550 11 50 22 98 24 107 18 81 111 290 172 387 40 62 118 167 142
192 9 8 30 31 47 50 28 31 73 73 150 139 26 24 132 98 180 127 136 84 353 166
498 189 21 3 48 8 60 10 11 2 59 7 106 10 47 4 86 7 87 8 3 2 100 -2 168 -9z
m1390 -1547 c-2 -90 -5 -172 -8 -183 -2 -11 -8 -40 -12 -65 -20 -120 -83 -317
-125 -390 -5 -8 -21 -40 -37 -70 -15 -30 -30 -57 -33 -60 -4 -3 -17 -23 -31
-44 -13 -22 -27 -44 -31 -50 -5 -7 -84 66 -197 178 l-190 190 327 327 c180
181 330 328 333 329 4 0 6 -73 4 -162z m-826 -1034 l186 -186 -29 -22 c-104
-84 -411 -214 -546 -231 -16 -2 -37 -6 -47 -9 -58 -16 -340 -30 -386 -18 -13
3 64 86 305 328 178 178 325 323 327 324 2 0 88 -84 190 -186z"/>
</g>
</svg>
