<svg xmlns="http://www.w3.org/2000/svg" viewBox="0 0 793 357.49"><defs><style>.cls-1{fill:#f1f1f2;}</style></defs><g id="Capa_2" data-name="Capa 2"><g id="ok"><g id="Logo_original" data-name="Logo original"><path class="cls-1" d="M0,59.47C0,21.69,22.08.52,58.28.52a147.71,147.71,0,0,1,38.47,5c4.32,1.14,6.37,4.56,5.23,9.11l-1.59,7.51c-1.14,4.56-5.24,6.38-9.56,5a123.92,123.92,0,0,0-29.14-3.64C38.47,23.51,28,35.8,28,62v42.11c0,25.95,10.47,38.25,33.69,38.25a118.11,118.11,0,0,0,30.05-3.87c4.78-1.14,7.51.91,8.65,5.23l1.59,7.74a7.44,7.44,0,0,1-5.23,9.11,155.68,155.68,0,0,1-38.47,4.78C22.08,165.33,0,144.61,0,106.6Z"/><path class="cls-1" d="M144.12,3.62h9a8.89,8.89,0,0,1,8.89,8.9v141a9.12,9.12,0,0,1-9.12,9.12h-8.76A9.12,9.12,0,0,1,135,153.5V12.74A9.12,9.12,0,0,1,144.12,3.62Z"/><path class="cls-1" d="M198,46c0-25.51,15.9-42.37,48.16-42.37h33.72A9.12,9.12,0,0,1,289,12.74V17.5a9.12,9.12,0,0,1-9.12,9.12H246.33C230,26.62,225,34.14,225,47.8V69.62h47.88A9.12,9.12,0,0,1,282,78.74v5a8.89,8.89,0,0,1-8.89,8.89H225v26.11c0,13.85,5,20.89,21.36,20.89h34.52a9.12,9.12,0,0,1,9.12,9.12v4.76a9.12,9.12,0,0,1-9.12,9.12H246.16c-32,0-48.16-16.85-48.16-42.14Z"/><path class="cls-1" d="M321,12.74a9.12,9.12,0,0,1,9.12-9.12h7.49c5.54,0,9.7,3,12.93,8.43l59.08,101.37A294.38,294.38,0,0,1,408,83.35V12.74a9.12,9.12,0,0,1,9.12-9.12h9A8.89,8.89,0,0,1,435,12.51V153.73a8.89,8.89,0,0,1-8.89,8.89h-8.32c-5.49,0-10.07-3.19-13-8.43L346.4,53.05C347.31,64,348,74.92,348,82.89V153.5a9.12,9.12,0,0,1-9.12,9.12h-8.76A9.12,9.12,0,0,1,321,153.5Z"/><path class="cls-1" d="M468,59.47C468,21.69,490.08.52,526.28.52a147.71,147.71,0,0,1,38.47,5c4.32,1.14,6.37,4.56,5.23,9.11l-1.59,7.51c-1.14,4.56-5.24,6.38-9.56,5a123.92,123.92,0,0,0-29.14-3.64C506.47,23.51,496,35.8,496,62v42.11c0,25.95,10.47,38.25,33.69,38.25a118.11,118.11,0,0,0,30-3.87c4.78-1.14,7.51.91,8.65,5.23l1.59,7.74a7.44,7.44,0,0,1-5.23,9.11,155.68,155.68,0,0,1-38.47,4.78c-36.2,0-58.28-20.72-58.28-58.73Z"/><path class="cls-1" d="M613.12,3.62h9a8.89,8.89,0,0,1,8.89,8.9v141a9.12,9.12,0,0,1-9.12,9.12h-8.76A9.12,9.12,0,0,1,604,153.5V12.74A9.12,9.12,0,0,1,613.12,3.62Z"/><path class="cls-1" d="M694.28,27.22C698.17,11.89,709.15,0,726.53,0c17.16,0,28.13,12.35,32,27.22l32.94,125.57c1.37,5.26-1.37,9.83-7.32,9.83h-8.92c-5.49,0-9.38-3.66-10.75-9.15l-8.69-33.85H697.26l-8.47,33.85c-1.6,5.95-5,9.15-10.52,9.15h-9.38c-5.94,0-8.69-4.8-7.32-10.06Zm56,69.4L733.6,30.5c-1.14-4.56-3.65-7.06-7.07-7.06s-5.93,2.28-7.07,7.06L702.82,96.62Z"/><path class="cls-1" d="M5,204.74a9.12,9.12,0,0,1,9.12-9.12H50c35.89,0,55.65,23.63,55.65,51.12,0,27.94-19.76,50.88-55.65,50.88H32V345.5a9.12,9.12,0,0,1-9.12,9.12H14.12A9.12,9.12,0,0,1,5,345.5Zm45.24,70.88c19.76,0,28.5-14,28.5-28.5,0-15.17-8.74-28.5-28.5-28.5H33v57Z"/><path class="cls-1" d="M133,259.18c0-39,23-66.83,62.5-66.83S258,220.18,258,259.18v31.48c0,39.23-23,66.83-62.5,66.83S133,329.89,133,290.66Zm62.5,75c27,0,34.5-21.33,34.5-46.07V261.76c0-24.52-7.49-46.08-34.5-46.08-26.78,0-34.5,21.56-34.5,46.08v26.33C161,312.83,168.72,334.16,195.5,334.16Z"/><path class="cls-1" d="M294,210.67A12.13,12.13,0,0,1,303.3,199c8.17-2.51,24.73-6.61,40.84-6.61,34.49,0,52.87,24.86,52.87,51.78,0,15.29-8.4,38.1-32.22,46.54l25.41,53.39c2.5,5.47-.68,10.49-6.13,10.49H373c-5.45,0-8.85-3-11.12-8.21L338,294.62H321V345.5a9.12,9.12,0,0,1-9.12,9.12h-8.76A9.12,9.12,0,0,1,294,345.5Zm47.75,62c18,0,27.13-12.31,27.13-28.5,0-15.27-6.84-28.73-24.63-28.73A74.88,74.88,0,0,0,321,218.81v53.81Z"/><path class="cls-1" d="M458,218.62H428.12A9.12,9.12,0,0,1,419,209.5v-4.76a9.12,9.12,0,0,1,9.12-9.12h88a8.89,8.89,0,0,1,8.89,8.9v5a9.12,9.12,0,0,1-9.12,9.12H485V345.73a8.89,8.89,0,0,1-8.89,8.89h-9A9.12,9.12,0,0,1,458,345.5Z"/><path class="cls-1" d="M565.29,219.22c3.89-15.33,14.87-27.22,32.25-27.22,17.16,0,28.13,12.35,32,27.22L662.5,344.79c1.37,5.26-1.37,9.83-7.32,9.83h-8.92c-5.49,0-9.38-3.66-10.75-9.15l-8.69-33.85H568.27l-8.47,33.85c-1.6,5.95-5,9.15-10.52,9.15H539.9c-5.94,0-8.69-4.8-7.32-10.06Zm56,69.4L604.61,222.5c-1.14-4.56-3.65-7.06-7.07-7.06s-5.93,2.28-7.07,7.06l-16.64,66.12Z"/><path class="cls-1" d="M696,204.74a9.12,9.12,0,0,1,9.12-9.12h9a8.89,8.89,0,0,1,8.89,8.9v127.1h60.88a9.12,9.12,0,0,1,9.12,9.12v4.76a9.12,9.12,0,0,1-9.12,9.12H705.12A9.12,9.12,0,0,1,696,345.5Z"/></g></g></g></svg>