<svg xmlns="http://www.w3.org/2000/svg" viewBox="0 0 372.93 378.17"><defs><style>.cls-1{fill:none;stroke-width:22.38px;}.cls-1,.cls-2{stroke:#3c95a4;stroke-miterlimit:10;}.cls-2{fill:#3c95a4;stroke-width:9.94px;}</style></defs><g id="Capa_2" data-name="Capa 2"><g id="ok"><g id="Logo_original" data-name="Logo original"><circle class="cls-1" cx="98.93" cy="98.93" r="87.74"/><path class="cls-2" d="M88.27,141.32h0a14.85,14.85,0,0,1,14.85,14.85V381.36a7.42,7.42,0,0,1-7.42,7.42h0a7.42,7.42,0,0,1-7.42-7.42v-240a0,0,0,0,1,0,0Z" transform="translate(-119.7 83.36) rotate(-30)"/><path class="cls-2" d="M259.81-31.81h0a7.42,7.42,0,0,1,7.42,7.42V201.56a14.1,14.1,0,0,1-14.1,14.1h-.75a0,0,0,0,1,0,0v-240a7.42,7.42,0,0,1,7.42-7.42Z" transform="translate(469.32 -87.11) rotate(120)"/><rect class="cls-2" x="192.49" y="51.87" width="14.85" height="296.96" rx="7.42" transform="translate(-83.12 200.04) rotate(-45)"/><rect class="cls-2" x="117.29" y="41.99" width="14.85" height="165.44" rx="4.95" transform="translate(124.71 301.08) rotate(-135)"/></g></g></g></svg>